<svg width="24" height="24" viewBox="0 0 24 24" fill="none" xmlns="http://www.w3.org/2000/svg">
<mask id="mask0_725_547" style="mask-type:alpha" maskUnits="userSpaceOnUse" x="3" y="0" width="21" height="21">
<rect x="3.04028" width="20.9598" height="20.9598" fill="#D9D9D9"/>
</mask>
<g mask="url(#mask0_725_547)">
<path d="M13.5199 4.36683C13.0376 4.36683 12.6466 3.97583 12.6466 3.49351V1.74686C12.6466 1.26454 13.0376 0.873535 13.5199 0.873535V0.873535C14.0022 0.873535 14.3932 1.26454 14.3932 1.74686V3.49351C14.3932 3.97583 14.0022 4.36683 13.5199 4.36683V4.36683ZM19.0585 6.16409C18.7248 6.49788 18.1836 6.49788 17.8498 6.16409V6.16409C17.5191 5.83342 17.5156 5.29839 17.8419 4.96338L19.0806 3.69141C19.4197 3.34324 19.9788 3.34202 20.3194 3.6887V3.6887C20.6527 4.02792 20.6503 4.57235 20.314 4.9086L19.0585 6.16409ZM20.5065 11.3534C20.0242 11.3534 19.6332 10.9624 19.6332 10.4801V10.4801C19.6332 9.99777 20.0242 9.60677 20.5065 9.60677H22.2531C22.7354 9.60677 23.1264 9.99777 23.1264 10.4801V10.4801C23.1264 10.9624 22.7354 11.3534 22.2531 11.3534H20.5065ZM13.5199 20.0866C13.0376 20.0866 12.6466 19.6956 12.6466 19.2133V17.4667C12.6466 16.9844 13.0376 16.5934 13.5199 16.5934V16.5934C14.0022 16.5934 14.3932 16.9844 14.3932 17.4667V19.2133C14.3932 19.6956 14.0022 20.0866 13.5199 20.0866V20.0866ZM9.18175 6.14995C8.84952 6.47032 8.32294 6.46905 7.99226 6.14707L6.73131 4.9193C6.38309 4.58025 6.38184 4.02113 6.72854 3.68052V3.68052C7.06773 3.34727 7.61213 3.34968 7.94836 3.68592L9.19283 4.93039C9.5309 5.26845 9.52591 5.81809 9.18175 6.14995V6.14995ZM20.3097 17.2482C19.9638 17.6063 19.39 17.6061 19.0442 17.2479L17.8324 15.9924C17.5109 15.6594 17.5156 15.1303 17.8429 14.803V14.803C18.1701 14.4758 18.6992 14.471 19.0322 14.7924L20.2879 16.004C20.6377 16.3415 20.6474 16.8987 20.3097 17.2482V17.2482ZM4.78665 11.3534C4.30433 11.3534 3.91333 10.9624 3.91333 10.4801V10.4801C3.91333 9.99777 4.30433 9.60677 4.78665 9.60677H6.5333C7.01562 9.60677 7.40662 9.99777 7.40662 10.4801V10.4801C7.40662 10.9624 7.01562 11.3534 6.5333 11.3534H4.78665ZM7.96339 17.2811C7.62062 17.6238 7.06412 17.6214 6.72439 17.2756V17.2756C6.38889 16.9341 6.39131 16.386 6.72982 16.0475L7.95206 14.8253C8.29338 14.4839 8.84366 14.4741 9.19694 14.803V14.803V14.803C9.54481 15.1389 9.54969 15.6948 9.20776 16.0367L7.96339 17.2811ZM13.5199 15.72C12.0643 15.72 10.8271 15.2106 9.80826 14.1917C8.78939 13.1728 8.27995 11.9356 8.27995 10.4801C8.27995 9.02455 8.78939 7.78735 9.80826 6.76847C10.8271 5.74959 12.0643 5.24015 13.5199 5.24015C14.9754 5.24015 16.2126 5.74959 17.2315 6.76847C18.2504 7.78735 18.7598 9.02455 18.7598 10.4801C18.7598 11.9356 18.2504 13.1728 17.2315 14.1917C16.2126 15.2106 14.9754 15.72 13.5199 15.72Z" fill="#FCBD1C"/>
</g>
<mask id="mask1_725_547" style="mask-type:alpha" maskUnits="userSpaceOnUse" x="0" y="5" width="19" height="19">
<rect y="5.66016" width="18.3398" height="18.3398" fill="#D9D9D9"/>
</mask>
<g mask="url(#mask1_725_547)">
<path d="M4.96678 20.9433C3.80781 20.9433 2.81759 20.5421 1.99612 19.7398C1.17465 18.9374 0.763916 17.9567 0.763916 16.7978C0.763916 15.8044 1.06321 14.9192 1.6618 14.1423C2.26039 13.3654 3.04365 12.8687 4.01159 12.6522C4.32999 11.4805 4.96678 10.5317 5.92198 9.80572C6.87718 9.07977 7.95974 8.7168 9.16965 8.7168C10.6598 8.7168 11.9238 9.23579 12.9618 10.2738C13.9998 11.3117 14.5188 12.5758 14.5188 14.0659C15.3975 14.1678 16.1267 14.5467 16.7062 15.2026C17.2856 15.8585 17.5754 16.6258 17.5754 17.5046C17.5754 18.4598 17.2411 19.2717 16.5724 19.9404C15.9038 20.609 15.0919 20.9433 14.1367 20.9433H4.96678Z" fill="#71B6F7"/>
</g>
</svg>
