<svg width="24" height="24" viewBox="0 0 24 24" fill="none" xmlns="http://www.w3.org/2000/svg">
<mask id="mask0_725_548" style="mask-type:alpha" maskUnits="userSpaceOnUse" x="0" y="0" width="24" height="24">
<rect width="24" height="24" fill="#D9D9D9"/>
</mask>
<g mask="url(#mask0_725_548)">
<path d="M12 21.5C9.78333 21.5 7.89583 20.7333 6.3375 19.2C4.77917 17.6667 4 15.8 4 13.6C4 12.55 4.20417 11.5458 4.6125 10.5875C5.02083 9.62917 5.6 8.78333 6.35 8.05L12 2.5L17.65 8.05C18.4 8.78333 18.9792 9.62917 19.3875 10.5875C19.7958 11.5458 20 12.55 20 13.6C20 15.8 19.2208 17.6667 17.6625 19.2C16.1042 20.7333 14.2167 21.5 12 21.5Z" fill="#71B6F7"/>
</g>
<mask id="mask1_725_548" style="mask-type:alpha" maskUnits="userSpaceOnUse" x="13" y="13" width="10" height="10">
<rect x="13" y="13" width="10" height="10" fill="#D9D9D9"/>
</mask>
<g mask="url(#mask1_725_548)">
<path d="M16.5208 20.8751C16.4167 20.9306 16.3107 20.9393 16.2031 20.9011C16.0955 20.8629 16.0139 20.7917 15.9583 20.6876L13.4583 15.6876C13.4028 15.5834 13.3941 15.4775 13.4323 15.3699C13.4705 15.2622 13.5417 15.1806 13.6458 15.1251C13.75 15.0695 13.8559 15.0608 13.9635 15.099C14.0712 15.1372 14.1528 15.2084 14.2083 15.3126L16.7083 20.3126C16.7639 20.4167 16.7726 20.5226 16.7344 20.6303C16.6962 20.7379 16.625 20.8195 16.5208 20.8751ZM18.4687 20.8751C18.3646 20.9306 18.2587 20.9393 18.151 20.9011C18.0434 20.8629 17.9618 20.7917 17.9062 20.6876L15.4062 15.6876C15.3507 15.5834 15.342 15.4775 15.3802 15.3699C15.4184 15.2622 15.4896 15.1806 15.5937 15.1251C15.6979 15.0695 15.8021 15.0608 15.9062 15.099C16.0104 15.1372 16.0903 15.2084 16.1458 15.3126L18.6562 20.3126C18.7118 20.4167 18.7205 20.5226 18.6823 20.6303C18.6441 20.7379 18.5729 20.8195 18.4687 20.8751ZM20.4167 20.8646C20.3125 20.9202 20.2066 20.9306 20.0989 20.8959C19.9913 20.8612 19.9097 20.7917 19.8542 20.6876L17.3542 15.6876C17.2986 15.5834 17.2899 15.4775 17.3281 15.3699C17.3663 15.2622 17.4375 15.1806 17.5417 15.1251C17.6458 15.0695 17.75 15.0608 17.8542 15.099C17.9583 15.1372 18.0382 15.2084 18.0937 15.3126L20.6042 20.3126C20.6597 20.4167 20.6684 20.5209 20.6302 20.6251C20.592 20.7292 20.5208 20.8091 20.4167 20.8646ZM22.3542 20.8751C22.25 20.9306 22.1441 20.9393 22.0364 20.9011C21.9288 20.8629 21.8472 20.7917 21.7917 20.6876L19.2917 15.6876C19.2361 15.5834 19.2274 15.4775 19.2656 15.3699C19.3038 15.2622 19.375 15.1806 19.4792 15.1251C19.5833 15.0695 19.6892 15.0608 19.7969 15.099C19.9045 15.1372 19.9861 15.2084 20.0417 15.3126L22.5417 20.3126C22.5972 20.4167 22.6059 20.5226 22.5677 20.6303C22.5295 20.7379 22.4583 20.8195 22.3542 20.8751Z" fill="#0032A0"/>
</g>
</svg>
