<svg width="24" height="24" viewBox="0 0 24 24" fill="none" xmlns="http://www.w3.org/2000/svg">
<mask id="mask0_725_549" style="mask-type:alpha" maskUnits="userSpaceOnUse" x="0" y="0" width="24" height="24">
<rect width="24" height="24" fill="#D9D9D9"/>
</mask>
<g mask="url(#mask0_725_549)">
<path d="M1 17C1 15.4833 1.2875 14.0583 1.8625 12.725C2.4375 11.3917 3.225 10.225 4.225 9.225C5.225 8.225 6.39167 7.4375 7.725 6.8625C9.05833 6.2875 10.4833 6 12 6C13.5167 6 14.9417 6.2875 16.275 6.8625C17.6083 7.4375 18.775 8.225 19.775 9.225C20.775 10.225 21.5625 11.3917 22.1375 12.725C22.7125 14.0583 23 15.4833 23 17H21C21 14.5167 20.1208 12.3958 18.3625 10.6375C16.6042 8.87917 14.4833 8 12 8C9.51667 8 7.39583 8.87917 5.6375 10.6375C3.87917 12.3958 3 14.5167 3 17H1Z" fill="#FC1C1C"/>
</g>
<mask id="mask1_725_549" style="mask-type:alpha" maskUnits="userSpaceOnUse" x="0" y="0" width="24" height="24">
<rect width="24" height="24" fill="#D9D9D9"/>
</mask>
<g mask="url(#mask1_725_549)">
<path d="M3 17C3 14.5143 3.87857 12.3929 5.63571 10.6357C7.39286 8.87857 9.51429 8 12 8C14.4857 8 16.6071 8.87857 18.3643 10.6357C20.1214 12.3929 21 14.5143 21 17H18.4286C18.4286 15.2214 17.8018 13.7054 16.5482 12.4518C15.2946 11.1982 13.7786 10.5714 12 10.5714C10.2214 10.5714 8.70536 11.1982 7.45179 12.4518C6.19821 13.7054 5.57143 15.2214 5.57143 17H3Z" fill="#FF771D"/>
<path d="M5 17C5 15.0667 5.68333 13.4167 7.05 12.05C8.41667 10.6833 10.0667 10 12 10C13.9333 10 15.5833 10.6833 16.95 12.05C18.3167 13.4167 19 15.0667 19 17H17C17 15.6167 16.5125 14.4375 15.5375 13.4625C14.5625 12.4875 13.3833 12 12 12C10.6167 12 9.4375 12.4875 8.4625 13.4625C7.4875 14.4375 7 15.6167 7 17H5Z" fill="#FCBD1C"/>
<path d="M7 17C7 15.619 7.4881 14.4405 8.46429 13.4643C9.44048 12.4881 10.619 12 12 12C13.381 12 14.5595 12.4881 15.5357 13.4643C16.5119 14.4405 17 15.619 17 17H15.5714C15.5714 16.0119 15.2232 15.1696 14.5268 14.4732C13.8304 13.7768 12.9881 13.4286 12 13.4286C11.0119 13.4286 10.1696 13.7768 9.47321 14.4732C8.77679 15.1696 8.42857 16.0119 8.42857 17H7Z" fill="#2AC200"/>
</g>
</svg>
