<svg width="24" height="24" viewBox="0 0 24 24" fill="none" xmlns="http://www.w3.org/2000/svg">
<mask id="mask0_725_514" style="mask-type:alpha" maskUnits="userSpaceOnUse" x="0" y="0" width="24" height="24">
<rect width="24" height="24" fill="#D9D9D9"/>
</mask>
<g mask="url(#mask0_725_514)">
<path d="M12 5C11.4477 5 11 4.55228 11 4V2C11 1.44772 11.4477 1 12 1V1C12.5523 1 13 1.44772 13 2V4C13 4.55228 12.5523 5 12 5V5ZM18.342 7.05796C17.9598 7.44016 17.3402 7.44016 16.958 7.05796V7.05796C16.5793 6.67932 16.5753 6.06669 16.9489 5.68308L18.3673 4.22661C18.7556 3.82793 19.3958 3.82654 19.7858 4.22351V4.22351C20.1674 4.61193 20.1647 5.23533 19.7796 5.62036L18.342 7.05796ZM20 13C19.4477 13 19 12.5523 19 12V12C19 11.4477 19.4477 11 20 11H22C22.5523 11 23 11.4477 23 12V12C23 12.5523 22.5523 13 22 13H20ZM12 23C11.4477 23 11 22.5523 11 22V20C11 19.4477 11.4477 19 12 19V19C12.5523 19 13 19.4477 13 20V22C13 22.5523 12.5523 23 12 23V23ZM7.03261 7.04177C6.65218 7.40861 6.04923 7.40715 5.67059 7.03847L4.22673 5.63261C3.828 5.24437 3.82657 4.60416 4.22355 4.21414V4.21414C4.61195 3.83256 5.23531 3.83531 5.62032 4.22032L7.0453 5.6453C7.43241 6.03241 7.42669 6.66177 7.03261 7.04177V7.04177ZM19.7747 19.7498C19.3786 20.1598 18.7215 20.1597 18.3256 19.7495L16.938 18.3119C16.57 17.9306 16.5753 17.3247 16.9501 16.9499V16.9499C17.3247 16.5753 17.9306 16.5698 18.3119 16.9378L19.7497 18.3252C20.1502 18.7116 20.1614 19.3496 19.7747 19.7498V19.7498ZM2 13C1.44772 13 1 12.5523 1 12V12C1 11.4477 1.44772 11 2 11H4C4.55228 11 5 11.4477 5 12V12C5 12.5523 4.55228 13 4 13H2ZM5.63753 19.7875C5.24503 20.18 4.60781 20.1771 4.21881 19.7812V19.7812C3.83464 19.3902 3.83742 18.7626 4.22503 18.375L5.62455 16.9754C6.01538 16.5846 6.64547 16.5734 7.05 16.95V16.95V16.95C7.44833 17.3346 7.45392 17.9711 7.06239 18.3626L5.63753 19.7875ZM12 18C10.3333 18 8.91667 17.4167 7.75 16.25C6.58333 15.0833 6 13.6667 6 12C6 10.3333 6.58333 8.91667 7.75 7.75C8.91667 6.58333 10.3333 6 12 6C13.6667 6 15.0833 6.58333 16.25 7.75C17.4167 8.91667 18 10.3333 18 12C18 13.6667 17.4167 15.0833 16.25 16.25C15.0833 17.4167 13.6667 18 12 18Z" fill="#FCBD1C"/>
</g>
</svg>
