<svg width="38" height="33" viewBox="0 0 38 33" fill="currentColor" xmlns="http://www.w3.org/2000/svg">
<path d="M8 18.9995C9.10442 18.9995 9.99975 19.8952 10 20.9995V30.9995C10 32.1041 9.10457 32.9995 8 32.9995H2C0.895441 32.9995 0 32.1041 0 30.9995V20.9995C0.000248315 19.8952 0.895594 18.9996 2 18.9995H8ZM22 12.9995C23.1044 12.9995 23.9998 13.8952 24 14.9995V30.9995C24 32.1041 23.1046 32.9995 22 32.9995H16C14.8954 32.9995 14 32.1041 14 30.9995V14.9995C14.0002 13.8952 14.8956 12.9996 16 12.9995H22ZM36 7.99954C37.1044 7.99954 37.9998 8.89518 38 9.99954V30.9995C38 32.1041 37.1046 32.9995 36 32.9995H30C28.8954 32.9995 28 32.1041 28 30.9995V9.99954C28.0002 8.89519 28.8956 7.99955 30 7.99954H36ZM36.6963 0.0464172C37.1788 -0.10791 37.71 0.12585 37.917 0.600128C38.1237 1.07465 37.9328 1.6222 37.4912 1.87064L37.3994 1.91653L17.8994 10.4165L16.5 11.0259V6.68314L1.47852 14.8775C0.993712 15.1417 0.386483 14.9628 0.12207 14.4781C-0.141888 13.9933 0.0368486 13.386 0.521484 13.1216L17.0215 4.12161L18.5 3.31497V7.9722L36.6006 0.08255L36.6963 0.0464172Z" fill="currentColor"/>
</svg>
