<svg width="36" height="35" viewBox="0 0 36 35" fill="currentColor" xmlns="http://www.w3.org/2000/svg">
<path d="M16.9619 0.928627C17.6508 0.384292 18.6237 0.384234 19.3125 0.928627L33.9941 12.5321C34.1457 12.6519 34.2708 12.7864 34.373 12.9286C34.9991 13.238 35.4305 13.8813 35.4307 14.6269V32.6005C35.4307 33.6471 34.5827 34.4958 33.5361 34.496H23.3008C23.3009 34.4926 23.3018 34.4887 23.3018 34.4853V21.5907C23.3015 21.0712 22.8828 20.6486 22.3633 20.6435L14.498 20.5683C13.9713 20.5633 13.5412 20.9898 13.541 21.5165V34.411C13.541 34.4395 13.5425 34.4682 13.5449 34.496H2.73828C1.69156 34.496 0.842773 33.6472 0.842773 32.6005V14.6269C0.842936 13.8814 1.27438 13.2381 1.90039 12.9286C2.00267 12.7863 2.12764 12.652 2.2793 12.5321L16.9619 0.928627Z" fill="currentColor"/>
</svg>
