<svg width="35" height="34" viewBox="0 0 35 34" fill="currentColor" xmlns="http://www.w3.org/2000/svg">
<path d="M2.56055 10.7812C3.97491 10.7812 5.12203 11.9274 5.12207 13.3418V31.4395C5.12205 32.8538 3.97492 34 2.56055 34C1.14637 33.9998 2.38942e-05 32.8537 0 31.4395V13.3418C3.88845e-05 11.9276 1.14638 10.7815 2.56055 10.7812ZM13.2314 2.73535C13.8007 1.49141 15.622 -0.746938 18.3535 0.248047C19.2072 0.800901 20.5729 2.56998 19.207 5.22363C18.2111 7.29682 17.6711 10.946 21.7686 11.6094L21.7334 
11.6104H31.9482C33.1804 11.6105 35.4966 12.2878 34.9053 14.998L31.9482 31.6309C31.7018 32.0415 30.8389 32.9245 29.3604 33.1709H6.8291V12.0244L13.2314 2.73535Z" fill="currentColor"/>
</svg>
