<svg width="40" height="33" viewBox="0 0 40 33" fill="currentColor" xmlns="http://www.w3.org/2000/svg">
<path d="M20.4287 0C24.9548 0 28.9383 3.06196 31.2578 7.5459C35.8899 8.61808 39.454 15.0869 39.4541 20.8906C39.4541 27.0351 35.5335 32.1554 30.5107 32.4824L30.5 32.5H9.57617C9.56186 32.5001 9.54753 32.501 9.5332 32.501C9.52246 32.501 9.51172 32.5 9.50098 32.5H8.8457L8.82031 32.4648C3.88847 32.0246 0.000144766 27.0625 0 21.001C0 14.6498 4.26813 7.50126 9.5332 7.50098C9.56243 7.50098 9.59193 7.50151 9.62109 7.50195C11.9437 3.04164 15.9172 0.000133307 20.4287 0Z" fill="currentColor"/>
</svg> 
